<svg xmlns="http://www.w3.org/2000/svg" viewBox="0 0 64 64">
  <circle cx="32" cy="32" r="30" fill="#eef2f8"/>
  <circle cx="32" cy="32" r="28" fill="none" stroke="#d4d4d4" stroke-width="0.4"/>
  <!-- Cardinal arms (cross) -->
  <polygon points="32,4 36,24 32,20 28,24" fill="#1a3a6b"/>
  <polygon points="32,4 36,24 32,28 28,24" fill="#112a4f"/>
  <polygon points="60,32 40,28 44,32 40,36" fill="#1a3a6b" opacity="0.6"/>
  <polygon points="60,32 40,28 36,32 40,36" fill="#112a4f" opacity="0.6"/>
  <polygon points="32,60 28,40 32,44 36,40" fill="#1a3a6b" opacity="0.6"/>
  <polygon points="32,60 28,40 32,36 36,40" fill="#112a4f" opacity="0.6"/>
  <polygon points="4,32 24,36 20,32 24,28" fill="#1a3a6b" opacity="0.6"/>
  <polygon points="4,32 24,36 28,32 24,28" fill="#112a4f" opacity="0.6"/>
  <!-- Intercardinal blades -->
  <g transform="rotate(45 32 32)">
    <polygon points="32,12 35,24 32,22 29,24" fill="#2a5a8f" opacity="0.3"/>
    <polygon points="32,12 35,24 32,26 29,24" fill="#1a3a6b" opacity="0.25"/>
  </g>
  <g transform="rotate(135 32 32)">
    <polygon points="32,12 35,24 32,22 29,24" fill="#2a5a8f" opacity="0.3"/>
    <polygon points="32,12 35,24 32,26 29,24" fill="#1a3a6b" opacity="0.25"/>
  </g>
  <g transform="rotate(225 32 32)">
    <polygon points="32,12 35,24 32,22 29,24" fill="#2a5a8f" opacity="0.3"/>
    <polygon points="32,12 35,24 32,26 29,24" fill="#1a3a6b" opacity="0.25"/>
  </g>
  <g transform="rotate(315 32 32)">
    <polygon points="32,12 35,24 32,22 29,24" fill="#2a5a8f" opacity="0.3"/>
    <polygon points="32,12 35,24 32,26 29,24" fill="#1a3a6b" opacity="0.25"/>
  </g>
  <!-- Axis lines -->
  <rect x="31.2" y="4" width="1.6" height="56" fill="#1a3a6b" opacity="0.06" rx="0.8"/>
  <rect x="4" y="31.2" width="56" height="1.6" fill="#1a3a6b" opacity="0.06" rx="0.8"/>
  <!-- Center -->
  <circle cx="32" cy="32" r="5" fill="#eef2f8" stroke="#1a3a6b" stroke-width="0.8"/>
  <circle cx="32" cy="32" r="3" fill="#1a3a6b"/>
  <circle cx="32" cy="32" r="1.2" fill="#eef2f8"/>
  <!-- Cardinal dots -->
  <circle cx="32" cy="2" r="1" fill="#1a3a6b" opacity="0.5"/>
  <circle cx="62" cy="32" r="1" fill="#1a3a6b" opacity="0.5"/>
  <circle cx="32" cy="62" r="1" fill="#1a3a6b" opacity="0.5"/>
  <circle cx="2" cy="32" r="1" fill="#1a3a6b" opacity="0.5"/>
</svg>
